<svg xmlns="http://www.w3.org/2000/svg" viewBox="0 0 1049.51 245.79"><defs><style>.cls-1{fill:#231f20;}.cls-2{fill:#ed1c24;}</style></defs><g id="Layer_2" data-name="Layer 2"><g id="Layer_1-2" data-name="Layer 1"><path class="cls-1" d="M31.3,122.9A144.26,144.26,0,0,1,75.18,19.12H11.84A11.84,11.84,0,0,0,0,31V214.83a11.84,11.84,0,0,0,11.84,11.84H75.18A144.25,144.25,0,0,1,31.3,122.9Z"/><path class="cls-1" d="M340.08,19.12H276.75a144.65,144.65,0,0,1,0,207.55h63.33a11.84,11.84,0,0,0,11.85-11.84V31A11.84,11.84,0,0,0,340.08,19.12Z"/><path class="cls-2" d="M176,0a122.9,122.9,0,1,0,122.9,122.9A122.89,122.89,0,0,0,176,0Zm23.4,144.72v68.81h-46.8V144.72H88.65V101.07h63.91V32.26h46.8v68.81h63.92v43.65Z"/><path d="M384.85,41.36h47.67V54.75H401V69.11h26.62V82.49H401V97.82h31.5v13.39H384.85Z"/><path d="M464.16,41.36l16.17,46.57h.84l16.17-46.57h21.33v69.85H502.36V66.32h-.42l-15.89,44.89H475.18L459.56,66h-.28v45.17H442.83V41.36Z"/><path d="M527.58,41.36h47.68V54.75h-31.5V69.11h26.62V82.49H543.76V97.82h31.5v13.39H527.58Z"/><path d="M611.57,86.53h-9.83v24.68H585.57V41.36h26.91c16.17,0,26.2,9.34,26.2,21.19,0,10.7-4.77,16.31-12.16,19.76l14.67,28.2v.7H623.91Zm-9.83-13.24h10.74c6.83,0,10.17-3.35,10.17-9.2,0-6-3.48-9.34-10.17-9.34H601.74Z"/><path d="M706.29,86.67c0,17-12.27,25.51-27.32,25.51-18.4,0-30.67-12.27-30.67-36S660.57,40.39,678,40.39c18.82,0,26.77,9.9,28.3,23.84H690.82c-1-7-4.33-10.88-12.41-10.88-8.5,0-13.8,6.83-13.8,23,0,15.9,4.88,22.87,15.33,22.87,7.11,0,10.88-4,10.88-13.8H678.13V73.85h28.16Z"/><path d="M714.93,41.36H762.6V54.75H731.1V69.11h26.62V82.49H731.1V97.82h31.5v13.39H714.93Z"/><path d="M830.91,111.21H815L789.64,68.83h-.55v42.38H772.91V41.36h16l25.23,42.38h.56V41.36h16.17Z"/><path d="M898.79,87.51c-.83,14.63-11.43,24.67-28.58,24.67-18.4,0-29.41-13-29.41-36,0-22.73,11.57-35.83,29.27-35.83,18,0,27.47,10.59,28.72,25.09H882.9c-.7-7.39-4.18-11.85-11.85-11.85-9.34,0-13.94,7.53-13.94,22.59s4.6,22.72,13.94,22.72c7.67,0,11-4,11.71-11.43Z"/><path d="M936,71.75l15-30.39h17.43l-24.4,44.75v25.1H927.92V86.11L903.53,41.36H921Z"/><path d="M407.15,181h.56L418,134.58h14.08l10.31,46.57H443l7.53-46.57H465l-13.53,69.85H435l-9.76-43.22h-.55l-9.62,43.22H398.65L385,134.58h14.63Z"/><path d="M510.34,191.32H488.8l-3.73,13.11H467.23l23.7-69.85h17.28l23.7,69.85H514.07Zm-17.88-13h14.22L500,154.8h-.84Z"/><path d="M584.74,204.43h-45V134.58h16.17V191h28.86Z"/><path d="M638.27,204.43h-45V134.58h16.17V191h28.86Z"/><path d="M646.77,134.58h47.67V148h-31.5v14.36h26.62v13.38H662.94V191h31.5v13.39H646.77Z"/><path d="M702.66,134.58h57.85V148H739.6v56.46H723.43V148H702.66Z"/><path d="M852.93,180.73c-.83,14.63-11.43,24.67-28.58,24.67-18.4,0-29.41-13-29.41-36,0-22.73,11.57-35.83,29.27-35.83,18,0,27.47,10.59,28.72,25.09H837c-.7-7.39-4.18-11.85-11.85-11.85-9.34,0-13.94,7.53-13.94,22.59s4.6,22.72,13.94,22.72c7.67,0,11-4,11.71-11.43Z"/><path d="M900.67,191.32H879.13l-3.72,13.11H857.56l23.7-69.85h17.29l23.69,69.85H904.4Zm-17.88-13H897l-6.69-23.56h-.84Z"/><path d="M956,179.75h-9.82v24.68H930.05V134.58H957c16.17,0,26.21,9.34,26.21,21.19,0,10.7-4.78,16.32-12.16,19.77l14.67,28.19v.7H968.38Zm-9.82-13.24H957c6.83,0,10.18-3.35,10.18-9.2,0-6-3.49-9.34-10.18-9.34H946.22Z"/><path d="M992.49,134.58h24.12c19,0,32.9,14.64,32.9,34.3,0,23.14-14.08,35.55-32.9,35.55H992.49Zm16.17,13.94v42.66h7.25c9.9,0,17.15-5.43,17.15-22.3,0-13.38-7.25-20.36-17.29-20.36Z"/></g></g></svg>